M48
; DRILL file {KiCad (6.0.11)} date Wed Jun 19 11:06:34 2024
; FORMAT={-:-/ absolute / metric / decimal}
; #@! TF.CreationDate,2024-06-19T11:06:34+02:00
; #@! TF.GenerationSoftware,Kicad,Pcbnew,(6.0.11)
; #@! TF.FileFunction,Plated,1,2,PTH
FMAT,2
METRIC
; #@! TA.AperFunction,Plated,PTH,ComponentDrill
T1C0.750
; #@! TA.AperFunction,Plated,PTH,ViaDrill
T2C0.800
; #@! TA.AperFunction,Plated,PTH,ComponentDrill
T3C0.800
; #@! TA.AperFunction,Plated,PTH,ComponentDrill
T4C1.000
; #@! TA.AperFunction,Plated,PTH,ComponentDrill
T5C1.100
; #@! TA.AperFunction,Plated,PTH,ComponentDrill
T6C1.300
; #@! TA.AperFunction,Plated,PTH,ComponentDrill
T7C1.397
%
G90
G05
T1
X155.21Y-51.52
X157.21Y-51.52
X163.465Y-51.52
X163.745Y-109.474
X163.745Y-111.474
X163.745Y-113.474
X163.83Y-66.675
X163.83Y-68.675
X163.83Y-73.66
X163.83Y-75.66
X163.83Y-77.66
X163.83Y-83.185
X163.83Y-85.185
X163.83Y-87.185
X163.83Y-100.33
X163.83Y-102.33
X163.83Y-104.33
X164.084Y-59.182
X164.084Y-61.182
X165.465Y-51.52
X169.545Y-83.455
X169.545Y-85.455
X171.45Y-59.055
X171.45Y-61.055
T2
X123.825Y-92.71
X123.887Y-97.619
X135.255Y-98.425
X137.16Y-67.945
X139.065Y-98.425
X143.51Y-67.945
X145.236Y-95.504
X145.236Y-98.044
X148.59Y-110.744
X148.769Y-101.346
X149.451Y-74.168
X150.876Y-95.504
X151.892Y-98.044
X154.432Y-102.616
X154.432Y-110.744
X154.778Y-73.981
X163.83Y-104.33
X167.207Y-73.66
X170.434Y-65.532
X170.434Y-71.12
X170.688Y-73.66
T3
X120.396Y-92.964
X120.396Y-95.464
X123.19Y-67.099
X123.19Y-69.599
X124.46Y-86.36
X125.476Y-112.268
X125.915Y-100.38
X125.915Y-102.92
X125.915Y-105.46
X125.915Y-108.0
X126.11Y-74.605
X126.11Y-77.145
X126.11Y-79.685
X126.11Y-82.225
X128.016Y-69.596
X128.27Y-92.71
X130.556Y-69.596
X130.81Y-92.71
X132.06Y-48.26
X132.06Y-58.42
X133.096Y-69.596
X133.35Y-92.71
X133.535Y-100.38
X133.535Y-102.92
X133.535Y-105.46
X133.535Y-108.0
X133.73Y-74.605
X133.73Y-77.145
X133.73Y-79.685
X133.73Y-82.225
X134.62Y-86.36
X135.255Y-48.26
X135.255Y-58.42
X135.636Y-112.268
X141.52Y-55.88
X142.79Y-60.96
X145.33Y-60.96
X147.87Y-60.96
X151.68Y-55.88
X153.924Y-58.928
X153.924Y-63.928
X163.195Y-91.48
X163.195Y-96.48
T4
X115.57Y-67.099
X115.57Y-92.71
X142.24Y-73.66
X142.24Y-76.2
X142.24Y-78.74
X142.24Y-81.28
X142.24Y-83.82
X142.24Y-86.36
X142.24Y-88.9
X142.24Y-91.44
X142.24Y-93.98
X142.24Y-96.52
X142.24Y-99.06
X142.24Y-101.6
X142.24Y-104.14
X142.24Y-106.68
X142.24Y-109.22
X157.48Y-73.66
X157.48Y-76.2
X157.48Y-78.74
X157.48Y-81.28
X157.48Y-83.82
X157.48Y-86.36
X157.48Y-88.9
X157.48Y-91.44
X157.48Y-93.98
X157.48Y-96.52
X157.48Y-99.06
X157.48Y-101.6
X157.48Y-104.14
X157.48Y-106.68
X157.48Y-109.22
T5
X144.06Y-50.475
X146.6Y-50.475
X149.14Y-50.475
T6
X117.635Y-99.1
X117.635Y-104.1
X118.11Y-72.259
X118.11Y-77.259
T7
X122.377Y-45.842
X122.377Y-60.838
X122.38Y-53.34
X124.879Y-48.344
X124.879Y-58.336
T0
M30
