M48
; DRILL file {KiCad (6.0.11)} date Wed Jun 19 11:41:44 2024
; FORMAT={-:-/ absolute / metric / decimal}
; #@! TF.CreationDate,2024-06-19T11:41:44+02:00
; #@! TF.GenerationSoftware,Kicad,Pcbnew,(6.0.11)
; #@! TF.FileFunction,MixedPlating,1,2
FMAT,2
METRIC
; #@! TA.AperFunction,Plated,PTH,ComponentDrill
T1C0.750
; #@! TA.AperFunction,Plated,PTH,ViaDrill
T2C0.800
; #@! TA.AperFunction,Plated,PTH,ComponentDrill
T3C0.800
; #@! TA.AperFunction,Plated,PTH,ComponentDrill
T4C1.000
; #@! TA.AperFunction,Plated,PTH,ComponentDrill
T5C1.100
; #@! TA.AperFunction,Plated,PTH,ComponentDrill
T6C1.300
; #@! TA.AperFunction,Plated,PTH,ComponentDrill
T7C1.397
; #@! TA.AperFunction,NonPlated,NPTH,ComponentDrill
T8C1.397
%
G90
G05
T1
X155.21Y51.52
X157.21Y51.52
X163.465Y51.52
X163.745Y109.474
X163.745Y111.474
X163.745Y113.474
X163.83Y66.675
X163.83Y68.675
X163.83Y73.66
X163.83Y75.66
X163.83Y77.66
X163.83Y83.185
X163.83Y85.185
X163.83Y87.185
X163.83Y100.33
X163.83Y102.33
X163.83Y104.33
X164.084Y59.182
X164.084Y61.182
X165.465Y51.52
X169.545Y83.455
X169.545Y85.455
X171.45Y59.055
X171.45Y61.055
T2
X123.825Y92.71
X123.887Y97.619
X135.255Y98.425
X137.16Y67.945
X139.065Y98.425
X143.51Y67.945
X145.236Y95.504
X145.236Y98.044
X148.59Y110.744
X148.769Y101.346
X149.451Y74.168
X150.876Y95.504
X151.892Y98.044
X154.432Y102.616
X154.432Y110.744
X154.778Y73.981
X163.83Y104.33
X167.207Y73.66
X170.434Y65.532
X170.434Y71.12
X170.688Y73.66
T3
X120.396Y92.964
X120.396Y95.464
X123.19Y67.099
X123.19Y69.599
X124.46Y86.36
X125.476Y112.268
X125.915Y100.38
X125.915Y102.92
X125.915Y105.46
X125.915Y108.0
X126.11Y74.605
X126.11Y77.145
X126.11Y79.685
X126.11Y82.225
X128.016Y69.596
X128.27Y92.71
X130.556Y69.596
X130.81Y92.71
X132.06Y48.26
X132.06Y58.42
X133.096Y69.596
X133.35Y92.71
X133.535Y100.38
X133.535Y102.92
X133.535Y105.46
X133.535Y108.0
X133.73Y74.605
X133.73Y77.145
X133.73Y79.685
X133.73Y82.225
X134.62Y86.36
X135.255Y48.26
X135.255Y58.42
X135.636Y112.268
X141.52Y55.88
X142.79Y60.96
X145.33Y60.96
X147.87Y60.96
X151.68Y55.88
X153.924Y58.928
X153.924Y63.928
X163.195Y91.48
X163.195Y96.48
T4
X115.57Y67.099
X115.57Y92.71
X142.24Y73.66
X142.24Y76.2
X142.24Y78.74
X142.24Y81.28
X142.24Y83.82
X142.24Y86.36
X142.24Y88.9
X142.24Y91.44
X142.24Y93.98
X142.24Y96.52
X142.24Y99.06
X142.24Y101.6
X142.24Y104.14
X142.24Y106.68
X142.24Y109.22
X157.48Y73.66
X157.48Y76.2
X157.48Y78.74
X157.48Y81.28
X157.48Y83.82
X157.48Y86.36
X157.48Y88.9
X157.48Y91.44
X157.48Y93.98
X157.48Y96.52
X157.48Y99.06
X157.48Y101.6
X157.48Y104.14
X157.48Y106.68
X157.48Y109.22
T5
X144.06Y50.475
X146.6Y50.475
X149.14Y50.475
T6
X117.635Y99.1
X117.635Y104.1
X118.11Y72.259
X118.11Y77.259
T7
X122.377Y45.842
X122.377Y60.838
X122.38Y53.34
X124.879Y48.344
X124.879Y58.336
T8
X112.382Y48.339
X112.382Y58.341
T0
M30
